<mxfile host="app.diagrams.net" modified="2021-10-11T02:34:44.827Z" agent="5.0 (Windows NT 10.0; Win64; x64) AppleWebKit/537.36 (KHTML, like Gecko) Chrome/93.0.4577.82 Safari/537.36 OPR/79.0.4143.73" etag="ZciXB8PMFV9SV9nTy6gR" version="15.5.0" type="github">
  <diagram id="nqKYkdBmCjKcPgUHzowr" name="Page-1">
    <mxGraphModel dx="1159" dy="622" grid="1" gridSize="10" guides="1" tooltips="1" connect="1" arrows="1" fold="1" page="1" pageScale="1" pageWidth="827" pageHeight="1169" math="0" shadow="0">
      <root>
        <mxCell id="0" />
        <mxCell id="1" parent="0" />
        <mxCell id="S3x63Uy6PcpKL9qscHyS-28" value="" style="rounded=0;whiteSpace=wrap;html=1;glass=0;strokeColor=none;" vertex="1" parent="1">
          <mxGeometry width="840" height="640" as="geometry" />
        </mxCell>
        <mxCell id="S3x63Uy6PcpKL9qscHyS-3" value="Home / Buscador&lt;br&gt;(Pagina Inicial / Informativo )" style="text;html=1;strokeColor=#6c8ebf;fillColor=#dae8fc;align=center;verticalAlign=middle;whiteSpace=wrap;rounded=0;" vertex="1" parent="1">
          <mxGeometry x="40" y="40" width="200" height="80" as="geometry" />
        </mxCell>
        <mxCell id="S3x63Uy6PcpKL9qscHyS-5" value="Login&lt;br&gt;(Assistências Tecnicas)" style="text;html=1;strokeColor=#b85450;fillColor=#f8cecc;align=center;verticalAlign=middle;whiteSpace=wrap;rounded=0;" vertex="1" parent="1">
          <mxGeometry x="40" y="200" width="200" height="80" as="geometry" />
        </mxCell>
        <mxCell id="S3x63Uy6PcpKL9qscHyS-6" value="Registrar Usuário&lt;br&gt;(Assistência Técnicas)" style="text;html=1;strokeColor=#b85450;fillColor=#f8cecc;align=center;verticalAlign=middle;whiteSpace=wrap;rounded=0;" vertex="1" parent="1">
          <mxGeometry x="40" y="360" width="200" height="80" as="geometry" />
        </mxCell>
        <mxCell id="S3x63Uy6PcpKL9qscHyS-7" value="Área do Usuário / Perfil CRUD&lt;br&gt;(Assistência Técnicas)" style="text;html=1;strokeColor=#b85450;fillColor=#f8cecc;align=center;verticalAlign=middle;whiteSpace=wrap;rounded=0;" vertex="1" parent="1">
          <mxGeometry x="320" y="360" width="200" height="80" as="geometry" />
        </mxCell>
        <mxCell id="S3x63Uy6PcpKL9qscHyS-11" value="" style="endArrow=classic;html=1;rounded=0;edgeStyle=orthogonalEdgeStyle;exitX=0.5;exitY=1;exitDx=0;exitDy=0;entryX=0.5;entryY=0;entryDx=0;entryDy=0;fillColor=#f8cecc;strokeColor=#b85450;strokeWidth=2;" edge="1" parent="1" source="S3x63Uy6PcpKL9qscHyS-3" target="S3x63Uy6PcpKL9qscHyS-5">
          <mxGeometry width="50" height="50" relative="1" as="geometry">
            <mxPoint x="390" y="330" as="sourcePoint" />
            <mxPoint x="440" y="280" as="targetPoint" />
          </mxGeometry>
        </mxCell>
        <mxCell id="S3x63Uy6PcpKL9qscHyS-13" value="" style="endArrow=classic;html=1;rounded=0;edgeStyle=orthogonalEdgeStyle;exitX=0.5;exitY=1;exitDx=0;exitDy=0;entryX=0.5;entryY=0;entryDx=0;entryDy=0;fillColor=#f8cecc;strokeColor=#b85450;strokeWidth=2;" edge="1" parent="1" source="S3x63Uy6PcpKL9qscHyS-5" target="S3x63Uy6PcpKL9qscHyS-6">
          <mxGeometry width="50" height="50" relative="1" as="geometry">
            <mxPoint x="150" y="130" as="sourcePoint" />
            <mxPoint x="150" y="250" as="targetPoint" />
          </mxGeometry>
        </mxCell>
        <mxCell id="S3x63Uy6PcpKL9qscHyS-14" value="" style="endArrow=classic;html=1;rounded=0;edgeStyle=orthogonalEdgeStyle;exitX=1;exitY=0.5;exitDx=0;exitDy=0;fillColor=#f8cecc;strokeColor=#b85450;strokeWidth=2;" edge="1" parent="1" source="S3x63Uy6PcpKL9qscHyS-5" target="S3x63Uy6PcpKL9qscHyS-7">
          <mxGeometry width="50" height="50" relative="1" as="geometry">
            <mxPoint x="150" y="330" as="sourcePoint" />
            <mxPoint x="150" y="450" as="targetPoint" />
            <Array as="points">
              <mxPoint x="420" y="240" />
            </Array>
          </mxGeometry>
        </mxCell>
        <mxCell id="S3x63Uy6PcpKL9qscHyS-15" value="" style="endArrow=classic;html=1;rounded=0;edgeStyle=orthogonalEdgeStyle;fillColor=#f8cecc;strokeColor=#b85450;entryX=0;entryY=0.5;entryDx=0;entryDy=0;strokeWidth=2;exitX=0.5;exitY=1;exitDx=0;exitDy=0;" edge="1" parent="1" source="S3x63Uy6PcpKL9qscHyS-6" target="S3x63Uy6PcpKL9qscHyS-7">
          <mxGeometry width="50" height="50" relative="1" as="geometry">
            <mxPoint x="200" y="330" as="sourcePoint" />
            <mxPoint x="430" y="450" as="targetPoint" />
            <Array as="points">
              <mxPoint x="140" y="480" />
              <mxPoint x="280" y="480" />
              <mxPoint x="280" y="400" />
            </Array>
          </mxGeometry>
        </mxCell>
        <mxCell id="S3x63Uy6PcpKL9qscHyS-16" value="CRUD OS&lt;br&gt;(Criar / Ler / Atualizar / Apagar&lt;br&gt;Ordem de Serviços)" style="text;html=1;strokeColor=#b85450;fillColor=#f8cecc;align=center;verticalAlign=middle;whiteSpace=wrap;rounded=0;" vertex="1" parent="1">
          <mxGeometry x="320" y="520" width="200" height="80" as="geometry" />
        </mxCell>
        <mxCell id="S3x63Uy6PcpKL9qscHyS-17" value="" style="endArrow=classic;html=1;rounded=0;edgeStyle=orthogonalEdgeStyle;exitX=0.5;exitY=1;exitDx=0;exitDy=0;entryX=0.5;entryY=0;entryDx=0;entryDy=0;fillColor=#f8cecc;strokeColor=#b85450;strokeWidth=2;" edge="1" parent="1" source="S3x63Uy6PcpKL9qscHyS-7" target="S3x63Uy6PcpKL9qscHyS-16">
          <mxGeometry width="50" height="50" relative="1" as="geometry">
            <mxPoint x="150" y="330" as="sourcePoint" />
            <mxPoint x="150" y="450" as="targetPoint" />
          </mxGeometry>
        </mxCell>
        <mxCell id="S3x63Uy6PcpKL9qscHyS-21" value="Visualizador OS&lt;br&gt;(Ordem de Serviço)" style="text;html=1;strokeColor=#6c8ebf;fillColor=#dae8fc;align=center;verticalAlign=middle;whiteSpace=wrap;rounded=0;" vertex="1" parent="1">
          <mxGeometry x="600" y="200" width="200" height="80" as="geometry" />
        </mxCell>
        <mxCell id="S3x63Uy6PcpKL9qscHyS-22" value="" style="endArrow=classic;html=1;rounded=0;edgeStyle=orthogonalEdgeStyle;exitX=1;exitY=0.5;exitDx=0;exitDy=0;entryX=0.5;entryY=0;entryDx=0;entryDy=0;fillColor=#dae8fc;strokeColor=#6c8ebf;strokeWidth=2;" edge="1" parent="1" source="S3x63Uy6PcpKL9qscHyS-3" target="S3x63Uy6PcpKL9qscHyS-21">
          <mxGeometry width="50" height="50" relative="1" as="geometry">
            <mxPoint x="150" y="130" as="sourcePoint" />
            <mxPoint x="150" y="210" as="targetPoint" />
          </mxGeometry>
        </mxCell>
        <mxCell id="S3x63Uy6PcpKL9qscHyS-23" value="Usuário normal só poderá fazer pesquisas de OS" style="text;html=1;strokeColor=#666666;fillColor=#f5f5f5;align=center;verticalAlign=middle;whiteSpace=wrap;rounded=0;fontStyle=0;fontColor=#333333;" vertex="1" parent="1">
          <mxGeometry x="480" y="20" width="320" height="40" as="geometry" />
        </mxCell>
        <mxCell id="S3x63Uy6PcpKL9qscHyS-24" value="As Assistências possuem um maior controle&amp;nbsp;" style="text;html=1;strokeColor=#666666;fillColor=#f5f5f5;align=center;verticalAlign=middle;whiteSpace=wrap;rounded=0;glass=0;fontStyle=0;fontColor=#333333;" vertex="1" parent="1">
          <mxGeometry x="160" y="140" width="320" height="40" as="geometry" />
        </mxCell>
        <mxCell id="S3x63Uy6PcpKL9qscHyS-25" value="" style="endArrow=classic;html=1;rounded=0;edgeStyle=orthogonalEdgeStyle;exitX=1;exitY=0.5;exitDx=0;exitDy=0;fillColor=#f8cecc;strokeColor=#b85450;strokeWidth=2;" edge="1" parent="1" source="S3x63Uy6PcpKL9qscHyS-16" target="S3x63Uy6PcpKL9qscHyS-21">
          <mxGeometry width="50" height="50" relative="1" as="geometry">
            <mxPoint x="430" y="450" as="sourcePoint" />
            <mxPoint x="430" y="530" as="targetPoint" />
            <Array as="points">
              <mxPoint x="700" y="560" />
            </Array>
          </mxGeometry>
        </mxCell>
      </root>
    </mxGraphModel>
  </diagram>
</mxfile>
